<svg width="92" height="92" viewBox="0 0 92 92" fill="none" xmlns="http://www.w3.org/2000/svg">
<rect x="1" y="1" width="90" height="90" rx="45" stroke="white" stroke-width="2"/>
<path d="M48.0833 29.3333C48.0833 28.1827 47.1506 27.25 46 27.25C44.8494 27.25 43.9167 28.1827 43.9167 29.3333V58.6787L33.9315 48.6935C33.1179 47.8799 31.7988 47.8799 30.9852 48.6935C30.1716 49.5071 30.1716 50.8262 30.9852 51.6398L43.0537 63.7083C44.6809 65.3355 47.3191 65.3355 48.9463 63.7083L61.0148 51.6398C61.8284 50.8262 61.8284 49.5071 61.0148 48.6935C60.2012 47.8799 58.8821 47.8799 58.0685 48.6935L48.0833 58.6787V29.3333Z" fill="white"/>
</svg>
